<?xml version="1.0" standalone="no"?>
<!DOCTYPE svg PUBLIC "-//W3C//DTD SVG 20010904//EN"
 "http://www.w3.org/TR/2001/REC-SVG-20010904/DTD/svg10.dtd">
<svg version="1.0" xmlns="http://www.w3.org/2000/svg"
 width="512.000000pt" height="512.000000pt" viewBox="0 0 512.000000 512.000000"
 preserveAspectRatio="xMidYMid meet">
<metadata>
Created by potrace 1.14, written by Peter Selinger 2001-2017
</metadata>
<g transform="translate(0.000000,512.000000) scale(0.100000,-0.100000)"
fill="#000000" stroke="none">
<path d="M2378 5116 c-1 -2 -39 -6 -82 -10 -44 -4 -82 -8 -85 -10 -3 -2 -31
-7 -61 -11 -68 -8 -207 -39 -280 -62 -49 -15 -129 -18 -750 -23 l-695 -5 -48
-23 c-61 -31 -118 -87 -148 -149 l-24 -48 -3 -609 -2 -609 -36 -96 c-61 -163
-114 -367 -139 -536 -27 -184 -27 -567 -1 -720 3 -16 8 -43 10 -60 3 -25 28
-148 41 -205 2 -8 13 -46 25 -85 11 -38 22 -77 24 -85 6 -21 44 -128 62 -170
12 -29 15 -140 17 -645 l2 -610 24 -48 c31 -62 86 -117 147 -148 l49 -24 695
-5 c622 -5 700 -7 745 -22 84 -29 290 -69 435 -85 88 -10 428 -10 515 0 698
75 1310 410 1749 956 274 340 477 810 531 1231 15 120 20 195 20 355 0 206
-13 359 -40 485 -3 14 -10 46 -15 71 -16 82 -59 226 -98 326 l-37 98 -5 620
-5 620 -24 48 c-31 62 -86 117 -147 148 l-49 24 -410 0 c-266 0 -410 -4 -410
-10 -1 -20 -38 -160 -47 -177 -8 -16 -19 -12 -116 37 l-107 55 -10 47 -10 48
-140 5 c-104 4 -158 11 -210 27 -76 24 -238 58 -324 68 -30 4 -63 9 -75 12
-23 5 -452 13 -458 9z"/>
</g>
</svg>
